<svg viewBox="0 0 32 32" width="160px" height="160px" xml:space="preserve" xmlns="http://www.w3.org/2000/svg" xmlns:xlink="http://www.w3.org/1999/xlink">
    
    <path d="M 5,10 l -4,0 l 0,12" stroke="#25b" stroke-width="1.5" fill-opacity="0" stroke-linejoin="round" stroke-linecap="round" />
    <path d="M 4,15 l -3,0" stroke="#25b" stroke-width="1.5" fill-opacity="0" stroke-linejoin="round" stroke-linecap="round" />

    <path d="M 7,10 l 0,12" stroke="#25b" stroke-width="1.5" fill-opacity="0" stroke-linejoin="round" stroke-linecap="round" />

    <path d="M 9,10 l 0,12 l 4,0" stroke="#25b" stroke-width="1.5" fill-opacity="0" stroke-linejoin="round" stroke-linecap="round" />

    <path d="M 12.5,10 l 5,0" stroke="#25b" stroke-width="1.5" fill-opacity="0" stroke-linejoin="round" stroke-linecap="round" />
    <path d="M 15,10 l 0,12" stroke="#25b" stroke-width="1.5" fill-opacity="0" stroke-linejoin="round" stroke-linecap="round" />

    <path d="M 23.5,10 l -4,0 l 0,12 l 4,0" stroke="#25b" stroke-width="1.5" fill-opacity="0" stroke-linejoin="round" stroke-linecap="round" />
    <path d="M 22.5,15 l -3,0" stroke="#25b" stroke-width="1.5" fill-opacity="0" stroke-linejoin="round" stroke-linecap="round" />

    <path d="M 25.5,22 l 0,-12 l 2,0 a 2,2 0,1,1,0,5 l -2,0 l 2,0 l 3,7" stroke="#25b" stroke-width="1.5" fill-opacity="0" stroke-linejoin="round" stroke-linecap="round" />

</svg>