<svg viewBox="0 0 32 32" width="160px" height="160px" xml:space="preserve" xmlns="http://www.w3.org/2000/svg" xmlns:xlink="http://www.w3.org/1999/xlink">
    <path d="M 3,3 l 0,10 l 5,0" stroke="#25b" stroke-width="2" fill-opacity="0" stroke-linejoin="round" stroke-linecap="round" />
    <path d="M 11.5,3 l 0,10" stroke="#25b" stroke-width="2" fill-opacity="0" stroke-linejoin="round" stroke-linecap="round" />
    <path d="M 15,10 a 2.75,2.75 0,1,0,2,-2.4 a 2.4,2.5 0,1,1,3,-3.2" stroke="#25b" stroke-width="2" fill-opacity="0" stroke-linejoin="round" stroke-linecap="round" />
    <path d="M 23,3 l 6,0" stroke="#25b" stroke-width="2" fill-opacity="0" stroke-linejoin="round" stroke-linecap="round" />
    <path d="M 26,3 l 0,10" stroke="#25b" stroke-width="2" fill-opacity="0" stroke-linejoin="round" stroke-linecap="round" />

    <path d="M 3,19 l 2.5,10 l 2.5,-10" stroke="#25b" stroke-width="2" fill-opacity="0" stroke-linejoin="round" stroke-linecap="round" />
    <path d="M 11,19 l 0,10" stroke="#25b" stroke-width="2" fill-opacity="0" stroke-linejoin="round" stroke-linecap="round" />
    <path d="M 19,19 l -5,0 l 0,10 l 5,0" stroke="#25b" stroke-width="2" fill-opacity="0" stroke-linejoin="round" stroke-linecap="round" />
    <path d="M 18,24 l -4,0" stroke="#25b" stroke-width="2" fill-opacity="0" stroke-linejoin="round" stroke-linecap="round" />
    <path d="M 22,19 l 2,10 l 1.5,-7 l 1.5,7 l 2,-10" stroke="#25b" stroke-width="2" fill-opacity="0" stroke-linejoin="round" stroke-linecap="round" />
</svg>