<?xml version="1.0" ?><!DOCTYPE svg  PUBLIC '-//W3C//DTD SVG 1.1//EN'  'http://www.w3.org/Graphics/SVG/1.1/DTD/svg11.dtd'><svg enable-background="new 0 0 128 128" height="128px" id="Layer_1" version="1.1" viewBox="0 0 128 128" width="128px" xml:space="preserve" xmlns="http://www.w3.org/2000/svg" xmlns:xlink="http://www.w3.org/1999/xlink"><path d="M97.519,66.047V26.028c0.004-5.51-2.252-10.559-5.865-14.163C88.05,8.252,83,5.997,77.491,6H50.509  C45,5.997,39.95,8.252,36.348,11.866c-3.614,3.604-5.87,8.653-5.867,14.163v40.019c-7.354,3.47-12.453,10.948-12.453,19.64v14.597  c0,11.992,9.683,21.717,21.647,21.717h48.656c11.952,0,21.641-9.725,21.641-21.717V85.687  C109.972,76.995,104.871,69.517,97.519,66.047z M69.461,104.8c0.358,2.062-1.22,2.724-2.725,2.724h-5.473  c-1.504,0-3.088-0.662-2.725-2.724l2.802-13.062c-2.284-1.02-3.879-3.306-3.879-5.969c0-3.61,2.928-6.536,6.538-6.536  s6.537,2.926,6.537,6.536c0,2.66-1.591,4.945-3.872,5.965L69.461,104.8z M84.167,63.97H43.833V26.028  c0.003-1.865,0.737-3.491,1.956-4.721c1.229-1.219,2.855-1.952,4.72-1.956h26.982c1.864,0.003,3.49,0.736,4.721,1.956  c1.219,1.229,1.952,2.856,1.955,4.721V63.97z" fill="#232323"/></svg>