<svg class="svg-logo" style="cursor: pointer; filter: drop-shadow(0px 0px 2px #83f);" height="160" viewBox="15 15 145 290">
  <path class="logo-frame" d="M80,20 L120,60 L80,100 L40,60 Z" stroke-width="10" stroke="black" stroke-linecap="round" stroke-linejoin="round" fill-opacity="0" />
  <path class="logo-frame" d="M80,100 Q20,80 40,120" stroke-width="10" stroke="black" stroke-linecap="round" stroke-linejoin="round" fill-opacity="0" />
  <path class="logo-frame" d="M80,100 L120,140 A28.2842712,28.2842712 0 0,1 120,180 L40,260 Q20,280 40,300" stroke-width="10" stroke="black" stroke-linecap="round" stroke-linejoin="round" fill-opacity="0" />
  <path class="logo-frame" d="M100,120 Q70,120 70,150" stroke-width="10" stroke="black" stroke-linecap="round" stroke-linejoin="round" fill-opacity="0" />
  <path class="logo-frame" d="M120,140 Q90,140 90,170" stroke-width="10" stroke="black" stroke-linecap="round" stroke-linejoin="round" fill-opacity="0" />
  <path class="logo-frame" d="M80,220 L110,250" stroke-width="10" stroke="black" stroke-linecap="round" stroke-linejoin="round" fill-opacity="0" />
  <path class="logo-frame" d="M60,240 L90,270" stroke-width="10" stroke="black" stroke-linecap="round" stroke-linejoin="round" fill-opacity="0" />
  <line class="logo-eye" x1="90" x2="100" y1="60" y2="60" stroke-width="10" stroke="red" stroke-linecap="round" stroke-linejoin="round" fill-opacity="0" />
  <path d="M40,140 L120,220 A28.2842712,28.2842712 0 0,1 120,260 L80,300" stroke-width="10" stroke="red" stroke-linecap="round" stroke-linejoin="round" fill-opacity="0" />
</svg>