<?xml version="1.0" ?>
<!DOCTYPE svg  PUBLIC '-//W3C//DTD SVG 1.1//EN'  'http://www.w3.org/Graphics/SVG/1.1/DTD/svg11.dtd'>
<svg enable-background="new 0 0 512 512" height="512px" id="Layer_1" version="1.1" viewBox="0 0 512 512" width="512px" xml:space="preserve" xmlns="http://www.w3.org/2000/svg" xmlns:xlink="http://www.w3.org/1999/xlink">
  <path d="M 50 0 
        a 30 30, 0, 0, 1, 0 60 
        l 0 10 
        l 20 0 
        a 15 15, 0, 0, 1 15 15 
        l 0 36
        c 0 10, -15 10, -15 20
        l 0 40
        a 20 20, 0, 0, 1, -40 0
        l 0 -40
        c 0 -10, -15 -10, -15 -20
        l 0 -36
        a 15 15, 0, 0, 1 15 -15 
        l 20 0 
        l 0 -10 
        a 30 30, 0, 0, 1, 0 -60 
        z"/>
</svg>