<?xml version="1.0" ?>
<svg enable-background="new 0 0 100 100" id="Layer_1" version="1.1" viewBox="0 0 32 32" xml:space="preserve" xmlns="http://www.w3.org/2000/svg" xmlns:xlink="http://www.w3.org/1999/xlink">
<rect x="0" y="0" width="32" height="32" stroke-width="1" rx="4" ry="4" fill-opacity="0" stroke="black"/>
<g transform="scale(0.32, 0.32)" fill="#1b0cf0">
    <path d="M89.4,16.6H65.8C65.7,8,58.6,1,50,1S34.3,8,34.1,16.6H10.5v12.9h1.8c1.5,10.4,7.2,51.5,7.2,66.6V99h60.9v-2.8   c0-15.1,5.7-56.2,7.2-66.6h1.8V16.6z M50,6.7c5.5,0,10,4.4,10.2,9.9H39.8C39.9,11.1,44.4,6.7,50,6.7z M74.8,93.3H25.1   c-0.6-16.9-5.5-52.7-7.1-63.8h63.9C80.3,40.6,75.4,76.4,74.8,93.3z" />
    <path d="M48.9,44.7c0.6,0.9,1.1,1.8,1.5,2.6c0.9,1.7,1.8,3.4,2.8,5.1c-0.8,0.5-1.5,1-2.4,1.6c0.3,0,0.4,0.1,0.5,0.1   c2.7,0,5.4,0.1,8.1,0.1c0.3,0,0.6-0.3,0.7-0.5c0.9-1.3,1.7-2.7,2.5-4.1c0.7-1.1,1.3-2.2,2-3.3c0,0-0.1-0.1-0.1-0.1   c-0.9,0.4-1.7,0.9-2.6,1.4c-0.7-1.3-1.4-2.6-2.1-3.8c-0.9-1.6-2.3-2.5-4.1-2.5c-3.1,0-6.2,0-9.3,0.1c-0.4,0-0.7,0-1.1,0.1   C46.8,42.2,48,43.3,48.9,44.7z" />
    <path d="M36.3,68.1c-2.2,0-4.2-0.3-5.9-1.8c0.1,0.2,0.1,0.3,0.2,0.5c1.6,3,3.3,5.9,4.8,8.9c0.7,1.4,1.8,2.2,3.3,2.4   c2,0.2,3.9,0.2,5.9,0.3c1,0,2,0,3,0c0-3.4,0-6.8,0-10.2C43.8,68.1,40.1,68,36.3,68.1z" />
    <path d="M55.5,68.2c0,0-0.1-0.1-0.2-0.1c-0.1-0.9-0.1-1.7-0.2-2.6c-0.1,0-0.1,0-0.2,0c-1.4,2.5-2.8,5-4.2,7.6   c-0.1,0.2,0,0.6,0.1,0.8c1.3,2.4,2.6,4.7,3.9,7.1c0.1,0.1,0.2,0.3,0.3,0.5c0.1-1.1,0.1-2.1,0.2-3.1c1.4,0,2.7,0,4.1,0   c1.9,0,3.4-0.8,4.3-2.5c1.6-2.9,3.1-5.9,4.7-8.8c0.1-0.2,0.2-0.4,0.2-0.4c-1.1,0.4-2.2,1.2-3.4,1.3C62,68.1,58.8,68.1,55.5,68.2z" />
    <path d="M33.8,67.3c1.1,0.2,2.2,0.2,3.3,0.3c0.3,0,0.7-0.2,0.8-0.5c0.4-0.6,0.8-1.2,1.1-1.8c0.7-1.2,1.4-2.3,2.2-3.5   c0.9,0.5,1.6,0.9,2.4,1.3c0,0,0.1-0.1,0.1-0.1c-1.4-2.7-2.9-5.3-4.3-8c-0.1-0.2-0.5-0.4-0.7-0.4c-1.2,0-2.5,0-3.7,0   c-1.7,0-3.3,0-5,0c0,0.1,0,0.1-0.1,0.2c0.8,0.7,1.7,1.3,2.5,2c-0.9,1.6-1.6,3.2-2.5,4.8c-0.6,1.2-0.5,2.3,0.2,3.4   C31,66.1,32.3,67,33.8,67.3z" />
    <path d="M60.6,66.2c0.5,1.1,1.2,1.4,2.3,1.3c1.9-0.2,3.8-0.5,5.4-1.7c1.2-1,1.8-2.6,1.3-3.8c-1.2-2.5-2.5-5-3.8-7.5   c-2.9,1.8-5.7,3.5-8.6,5.3C58.3,61.9,59.6,64,60.6,66.2z" />
    <path d="M45.7,53.9c1.1-1.9,2.2-3.7,3.4-5.5c0.4-0.7,0.5-1.2,0-1.9c-0.3-0.3-0.4-0.8-0.7-1.1c-0.9-1.4-2-2.6-3.6-3.3   c-1.4-0.7-3.2-0.5-3.9,0.7c-1.6,2.3-3.1,4.7-4.6,7.1c2.9,1.7,5.8,3.4,8.7,5.1C45.3,54.6,45.5,54.3,45.7,53.9z" />
</g>
</svg>